<?xml version="1.0" encoding="UTF-8"?>
<svg version="1.1" xmlns="http://www.w3.org/2000/svg" width="256" height="237">
<path d="M0 0 C6.27 0 12.54 0 19 0 C22.37879435 7.88385347 22.37879435 7.88385347 22.36328125 13.4140625 C22.36263672 14.58710937 22.36199219 15.76015625 22.36132812 16.96875 C22.34521484 18.1753125 22.32910156 19.381875 22.3125 20.625 C22.31733398 22.44644531 22.31733398 22.44644531 22.32226562 24.3046875 C22.26735675 33.36964297 22.26735675 33.36964297 20.85620117 36.69677734 C20.57365479 37.45684082 20.2911084 38.2169043 20 39 C20.66 39.99 21.32 40.98 22 42 C22.40860241 46.08911433 22.37160462 50.17884754 22.37060547 54.28686523 C22.37496187 56.29492537 22.41194795 58.30282792 22.44921875 60.31054688 C22.45501953 62.22383789 22.45501953 62.22383789 22.4609375 64.17578125 C22.46915527 65.34020752 22.47737305 66.50463379 22.48583984 67.7043457 C21.8976907 71.69400666 20.49127842 73.86718692 18 77 C12.6251615 79.68741925 6.00925213 78 0 78 C0 52.26 0 26.52 0 0 Z M8 8 C8 16.58 8 25.16 8 34 C8.33 34 8.66 34 9 34 C9 25.42 9 16.84 9 8 C8.67 8 8.34 8 8 8 Z M10 8 C10 15.92 10 23.84 10 32 C10.66 32 11.32 32 12 32 C12 24.41 12 16.82 12 9 C11.34 8.67 10.68 8.34 10 8 Z M13 9 C13 16.92 13 24.84 13 33 C13.33 33 13.66 33 14 33 C14 25.08 14 17.16 14 9 C13.67 9 13.34 9 13 9 Z M8 42 C8 50.91 8 59.82 8 69 C8.33 69 8.66 69 9 69 C9 60.09 9 51.18 9 42 C8.67 42 8.34 42 8 42 Z M13 43 C13 51.58 13 60.16 13 69 C13.33 69 13.66 69 14 69 C14 60.42 14 51.84 14 43 C13.67 43 13.34 43 13 43 Z M10 44 C10 51.59 10 59.18 10 67 C10.66 67 11.32 67 12 67 C12 59.41 12 51.82 12 44 C11.34 44 10.68 44 10 44 Z " fill="#000000" transform="translate(44,80)"/>
<path d="M0 0 C6.27 0 12.54 0 19 0 C22.37879266 9.01011375 22.37879266 9.01011375 22.36328125 14.73046875 C22.36263672 15.94541016 22.36199219 17.16035156 22.36132812 18.41210938 C22.34521484 19.65798828 22.32910156 20.90386719 22.3125 22.1875 C22.31733398 24.0737207 22.31733398 24.0737207 22.32226562 25.99804688 C22.2674192 35.36681297 22.2674192 35.36681297 20.85620117 38.70825195 C20.57365479 39.46452881 20.2911084 40.22080566 20 41 C20.66 41.99 21.32 42.98 22 44 C22.30297852 46.58447266 22.30297852 46.58447266 22.37890625 49.6640625 C22.43014648 51.34822266 22.43014648 51.34822266 22.48242188 53.06640625 C22.50884766 54.24074219 22.53527344 55.41507813 22.5625 56.625 C22.7603422 64.14300353 23.05332069 71.53609865 24 79 C24 79.33 24 79.66 24 80 C21.69 80 19.38 80 17 80 C15.1463492 76.02928486 14.70553295 72.75195258 14.5859375 68.38671875 C14.52792969 66.5159668 14.52792969 66.5159668 14.46875 64.60742188 C14.4378125 63.31384766 14.406875 62.02027344 14.375 60.6875 C14.33632812 59.37458984 14.29765625 58.06167969 14.2578125 56.70898438 C14.16366883 53.47279563 14.07803648 50.23661065 14 47 C12.68 46.67 11.36 46.34 10 46 C10 56.23 10 66.46 10 77 C5.05 77.99 5.05 77.99 0 79 C0 52.93 0 26.86 0 0 Z M8 8 C8 17.24 8 26.48 8 36 C8.33 36 8.66 36 9 36 C9 26.76 9 17.52 9 8 C8.67 8 8.34 8 8 8 Z M10 8 C10 16.58 10 25.16 10 34 C10.66 34 11.32 34 12 34 C12 25.75 12 17.5 12 9 C11.34 8.67 10.68 8.34 10 8 Z M13 9 C13 17.58 13 26.16 13 35 C13.33 35 13.66 35 14 35 C14 26.42 14 17.84 14 9 C13.67 9 13.34 9 13 9 Z " fill="#000000" transform="translate(98,80)"/>
<path d="M0 0 C2.64 0 5.28 0 8 0 C9.98656993 15.63414383 11.72723059 31.2954084 13.39834595 46.96606445 C13.6326729 49.15433616 13.86962962 51.34232788 14.10922241 53.5300293 C14.45004758 56.64948414 14.78092941 59.7698455 15.109375 62.890625 C15.21439835 63.83556824 15.31942169 64.78051147 15.42762756 65.75408936 C15.86914236 70.04628757 16.25160124 73.79206822 15 78 C8.375 78.125 8.375 78.125 5 77 C5 72.71 5 68.42 5 64 C4.01 64 3.02 64 2 64 C2 65.98 2 67.96 2 70 C1.34 69.67 0.68 69.34 0 69 C-0.2165625 70.9490625 -0.2165625 70.9490625 -0.4375 72.9375 C-0.875 76.875 -0.875 76.875 -2 78 C-3.99958364 78.04080783 -6.00045254 78.04254356 -8 78 C-9.23203451 74.30389646 -8.82164363 71.86652973 -8.39501953 67.98999023 C-8.31874329 67.28075409 -8.24246704 66.57151794 -8.16387939 65.84078979 C-7.90996851 63.49597012 -7.64658914 61.1523225 -7.3828125 58.80859375 C-7.20395473 57.18104539 -7.0255654 55.5534455 -6.84762573 53.92579651 C-6.47331757 50.514923 -6.09454127 47.10458496 -5.71240234 43.69458008 C-5.22214725 39.31811686 -4.74110603 34.94070264 -4.26315498 30.56288052 C-3.89556634 27.20232357 -3.52406609 23.84220853 -3.15127182 20.48222542 C-2.9724628 18.86795029 -2.79465785 17.25356362 -2.6178627 15.6390667 C-2.37033442 13.38580162 -2.11778212 11.13315729 -1.86376953 8.88061523 C-1.7208548 7.59726791 -1.57794006 6.31392059 -1.43069458 4.99168396 C-1 2 -1 2 0 0 Z M3 28 C3 31.63 3 35.26 3 39 C3.33 39 3.66 39 4 39 C4 35.37 4 31.74 4 28 C3.67 28 3.34 28 3 28 Z M2 39 C2 41.97 2 44.94 2 48 C2.33 48 2.66 48 3 48 C3 45.03 3 42.06 3 39 C2.67 39 2.34 39 2 39 Z M4 39 C4 43.29 4 47.58 4 52 C4.33 52 4.66 52 5 52 C5 47.71 5 43.42 5 39 C4.67 39 4.34 39 4 39 Z M1 48 C1 49.98 1 51.96 1 54 C1.33 54 1.66 54 2 54 C2 52.02 2 50.04 2 48 C1.67 48 1.34 48 1 48 Z " fill="#000000" transform="translate(78,80)"/>
<path d="M0 0 C2.64 0 5.28 0 8 0 C9.36185126 2.72370252 9.43636814 5.20134485 9.75610352 8.23461914 C9.89617325 9.54680923 10.03624298 10.85899933 10.18055725 12.21095276 C10.33022778 13.65233101 10.4796717 15.0937328 10.62890625 16.53515625 C10.78421114 18.01291551 10.93972667 19.49065265 11.09544373 20.96836853 C11.4216133 24.07264147 11.74486525 27.1772015 12.06616211 30.28198242 C12.47614667 34.24105388 12.89379048 38.19927219 13.31375217 42.15729618 C13.63708849 45.21377855 13.95600311 48.2707105 14.27366447 51.3277874 C14.42574589 52.78581902 14.57922903 54.24370519 14.7341938 55.70143318 C15.52406205 63.15279715 16.19851995 70.49822638 16 78 C13.36 78 10.72 78 8 78 C7.505 75.03 7.505 75.03 7 72 C6.34 72 5.68 72 5 72 C5 69.36 5 66.72 5 64 C4.01 64 3.02 64 2 64 C2 67.3 2 70.6 2 74 C1.34 73.67 0.68 73.34 0 73 C-0.66 74.65 -1.32 76.3 -2 78 C-3.98 78 -5.96 78 -8 78 C-8.20553804 70.09349359 -7.40132827 62.39808222 -6.50390625 54.55078125 C-6.34897399 53.16558574 -6.19443498 51.78034619 -6.04026794 50.39506531 C-5.71792861 47.5077389 -5.39238307 44.62079982 -5.06420898 41.73413086 C-4.64499371 38.04626042 -4.23153952 34.35777414 -3.82019138 30.66901875 C-3.42517445 27.12937227 -3.02707852 23.5900739 -2.62890625 20.05078125 C-2.55406069 19.38281336 -2.47921513 18.71484547 -2.40210152 18.02663612 C-2.18847247 16.12474302 -1.97233616 14.22313206 -1.75610352 12.3215332 C-1.63396988 11.24281448 -1.51183624 10.16409576 -1.38600159 9.0526886 C-1.00233344 6.01845402 -0.5236634 3.0129486 0 0 Z M4 32 C2.41602341 33.58397659 2.82980871 35.18025597 2.8125 37.375 C2.8535791 43.06034756 3.81888473 48.4529765 5 54 C5.33 54 5.66 54 6 54 C5.67 46.74 5.34 39.48 5 32 C4.67 32 4.34 32 4 32 Z M2 43 C2 46.3 2 49.6 2 53 C2.33 53 2.66 53 3 53 C3 49.7 3 46.4 3 43 C2.67 43 2.34 43 2 43 Z " fill="#000000" transform="translate(194,80)"/>
<path d="M0 0 C0.886875 0.05542969 1.77375 0.11085938 2.6875 0.16796875 C5 0.8125 5 0.8125 6.2109375 2.69140625 C6.60152344 3.74134766 6.60152344 3.74134766 7 4.8125 C7.53625 5.72 8.0725 6.6275 8.625 7.5625 C10.35378593 11.6487213 10.22761701 14.41190452 10 18.8125 C6.7 18.8125 3.4 18.8125 0 18.8125 C0 16.5025 0 14.1925 0 11.8125 C-0.66 11.8125 -1.32 11.8125 -2 11.8125 C-3.63111536 21.23672209 0.73319616 27.97951834 5.02539062 35.97363281 C8.83381601 43.15926908 11.20842594 49.59520364 10 57.8125 C8.625 61.1875 8.625 61.1875 7 63.8125 C6.34 65.1325 5.68 66.4525 5 67.8125 C0.71 67.8125 -3.58 67.8125 -8 67.8125 C-11.49941124 61.03944599 -13.29281957 56.5722185 -13 48.8125 C-12 47.8125 -12 47.8125 -8.4375 47.75 C-7.303125 47.770625 -6.16875 47.79125 -5 47.8125 C-4.67 50.4525 -4.34 53.0925 -4 55.8125 C-3.34 55.8125 -2.68 55.8125 -2 55.8125 C-2 56.4725 -2 57.1325 -2 57.8125 C-1.01 57.8125 -0.02 57.8125 1 57.8125 C1.95598578 49.65140038 -1.40681414 43.70965252 -4.9375 36.5 C-6.05169666 34.17101063 -7.16502034 31.84160336 -8.27734375 29.51171875 C-8.77484131 28.48908936 -9.27233887 27.46645996 -9.78491211 26.4128418 C-12.24602501 21.14595141 -12.51926292 16.55125055 -12 10.8125 C-10.625 7.4375 -10.625 7.4375 -9 4.8125 C-8.649375 4.049375 -8.29875 3.28625 -7.9375 2.5 C-6.06218032 -0.87557542 -3.47224403 -0.26748392 0 0 Z M-4 11.8125 C-4 14.1225 -4 16.4325 -4 18.8125 C-3.67 18.8125 -3.34 18.8125 -3 18.8125 C-3 16.5025 -3 14.1925 -3 11.8125 C-3.33 11.8125 -3.66 11.8125 -4 11.8125 Z " fill="#000000" transform="translate(152,78.1875)"/>
<path d="M0 0 C7.26 0 14.52 0 22 0 C22 3.3 22 6.6 22 10 C19.69 10 17.38 10 15 10 C15.01474869 10.8224118 15.02949738 11.64482361 15.04469299 12.49215698 C15.18258612 20.2321478 15.31555801 27.97219993 15.4429636 35.71236992 C15.508643 39.69192618 15.5762437 43.67143068 15.64819336 47.65087891 C15.71752256 51.48926445 15.78185965 55.32770383 15.84269524 59.16623306 C15.86682253 60.63272276 15.89276686 62.09918369 15.92053413 63.56560898 C15.95903632 65.61514537 15.99115177 67.6646877 16.02172852 69.71435547 C16.04171402 70.88239716 16.06169952 72.05043884 16.08229065 73.25387573 C16 76 16 76 15 78 C8.375 78.25 8.375 78.25 5 76 C4.63923645 73.25387573 4.63923645 73.25387573 4.65942383 69.71435547 C4.65898575 69.07032776 4.65854767 68.42630005 4.65809631 67.76275635 C4.66018906 65.63059336 4.68354135 63.49921338 4.70703125 61.3671875 C4.71262552 59.89031402 4.71689641 58.41343498 4.71989441 56.93655396 C4.73135665 53.04673937 4.76083527 49.1572601 4.79400635 45.26757812 C4.82467778 41.29952531 4.83839345 37.3314184 4.85351562 33.36328125 C4.88570401 25.57536786 4.93691655 17.78773089 5 10 C3.35 10 1.7 10 0 10 C0 6.7 0 3.4 0 0 Z " fill="#000000" transform="translate(165,80)"/>
<path d="M0 0 C2.64 0 5.28 0 8 0 C8 21.45 8 42.9 8 65 C5.36 65 2.72 65 0 65 C-1.79096045 63.20903955 -1.12766791 60.53667215 -1.12939453 58.11914062 C-1.13254669 56.86113647 -1.13569885 55.60313232 -1.13894653 54.30700684 C-1.13715675 52.92342087 -1.1351058 51.53983522 -1.1328125 50.15625 C-1.13348559 48.74759911 -1.13445565 47.33894834 -1.13571167 45.93029785 C-1.13718842 42.97451677 -1.13503483 40.01876586 -1.13037109 37.06298828 C-1.12467381 33.26625416 -1.12795293 29.46959072 -1.13394356 25.67285919 C-1.13754979 22.76303572 -1.1364103 19.85322912 -1.13381577 16.94340515 C-1.13314667 15.543106 -1.13397432 14.14280533 -1.13629532 12.74250793 C-1.13882283 10.78862536 -1.13429033 8.83473745 -1.12939453 6.88085938 C-1.12859894 5.76690796 -1.12780334 4.65295654 -1.12698364 3.50524902 C-1 1 -1 1 0 0 Z " fill="#000000" transform="translate(128,80)"/>
<path d="M0 0 C11.55 0 23.1 0 35 0 C35 2.97 35 5.94 35 9 C30.17619198 9.0246519 25.35242033 9.04283693 20.52856445 9.05493164 C18.88630536 9.05997174 17.24405077 9.06680378 15.60180664 9.07543945 C13.24624521 9.08751926 10.89074291 9.09323139 8.53515625 9.09765625 C7.79660904 9.10281754 7.05806183 9.10797882 6.2971344 9.11329651 C4.53101912 9.1134925 2.76502854 9.06194719 1 9 C0.67 8.67 0.34 8.34 0 8 C0 5.36 0 2.72 0 0 Z " fill="#000000" transform="translate(127,149)"/>
<path d="M0 0 C0.33 0 0.66 0 1 0 C1 25.41 1 50.82 1 77 C0.34 77 -0.32 77 -1 77 C-0.67 51.59 -0.34 26.18 0 0 Z " fill="#000000" transform="translate(96,80)"/>
<path d="M0 0 C0.33 0 0.66 0 1 0 C1 25.41 1 50.82 1 77 C0.67 77 0.34 77 0 77 C0 51.59 0 26.18 0 0 Z " fill="#000000" transform="translate(42,80)"/>
<path d="M0 0 C0.33 0 0.66 0 1 0 C1.87431253 6.76051092 2.14681771 13.355269 2.1328125 20.16796875 C2.13376923 21.20641434 2.13472595 22.24485992 2.13571167 23.31477356 C2.13638832 25.49557557 2.13457022 27.67637966 2.13037109 29.85717773 C2.12499914 33.18803424 2.13034204 36.51875692 2.13671875 39.84960938 C2.1360582 41.9765628 2.13477751 44.10351613 2.1328125 46.23046875 C2.13483673 47.22120895 2.13686096 48.21194916 2.13894653 49.23271179 C2.12303201 53.93560459 1.97727997 58.37514629 1 63 C0.67 63 0.34 63 0 63 C0 42.21 0 21.42 0 0 Z " fill="#000000" transform="translate(137,81)"/>
<path d="M0 0 C0.33 0 0.66 0 1 0 C1 20.79 1 41.58 1 63 C0.67 63 0.34 63 0 63 C0 42.21 0 21.42 0 0 Z " fill="#000000" transform="translate(125,81)"/>
<path d="M0 0 C0.33 0 0.66 0 1 0 C1.33 4.62 1.66 9.24 2 14 C2.33 14 2.66 14 3 14 C3.10349817 20.41688675 2.74507544 26.62694402 2 33 C-0.24734928 29.40735167 -0.23200508 26.44857927 -0.1953125 22.265625 C-0.18886719 20.97011719 -0.18242188 19.67460937 -0.17578125 18.33984375 C-0.15907193 16.97655981 -0.14214206 15.61327856 -0.125 14.25 C-0.1149634 12.87110015 -0.10583873 11.49219335 -0.09765625 10.11328125 C-0.07408093 6.74201118 -0.0411727 3.37109364 0 0 Z " fill="#000000" transform="translate(67,122)"/>
<path d="M0 0 C4.35415244 -0.02918634 8.70827948 -0.04686145 13.0625 -0.0625 C14.29162109 -0.07087891 15.52074219 -0.07925781 16.78710938 -0.08789062 C22.62786137 -0.10363389 28.25197017 -0.08469508 34 1 C34 1.33 34 1.66 34 2 C22.78 2 11.56 2 0 2 C0 1.34 0 0.68 0 0 Z " fill="#000000" transform="translate(128,146)"/>
<path d="M0 0 C10.89 0 21.78 0 33 0 C33 0.33 33 0.66 33 1 C22.11 1 11.22 1 0 1 C0 0.67 0 0.34 0 0 Z " fill="#000000" transform="translate(128,159)"/>
<path d="M0 0 C0.33 0 0.66 0 1 0 C1 9.24 1 18.48 1 28 C0.67 28 0.34 28 0 28 C0 18.76 0 9.52 0 0 Z " fill="#000000" transform="translate(111,127)"/>
<path d="M0 0 C0.33 0 0.66 0 1 0 C1 9.24 1 18.48 1 28 C0.67 28 0.34 28 0 28 C0 18.76 0 9.52 0 0 Z " fill="#000000" transform="translate(121,88)"/>
<path d="M0 0 C0.33 0 0.66 0 1 0 C1 9.24 1 18.48 1 28 C0.67 28 0.34 28 0 28 C0 18.76 0 9.52 0 0 Z " fill="#000000" transform="translate(67,87)"/>
<path d="M0 0 C0.33 0 0.66 0 1 0 C1.10808032 7.09727428 0.93854006 13.96094956 0 21 C-0.33 21 -0.66 21 -1 21 C-1.13794954 13.93391809 -0.74805717 7.02639415 0 0 Z " fill="#000000" transform="translate(188,111)"/>
<path d="M0 0 C0.33 0 0.66 0 1 0 C1 5.61 1 11.22 1 17 C0.67 17 0.34 17 0 17 C-1.33257403 5.47835991 -1.33257403 5.47835991 0 0 Z " fill="#000000" transform="translate(163,80)"/>
<path d="M0 0 C6.6 0 13.2 0 20 0 C20 0.33 20 0.66 20 1 C13.4 1 6.8 1 0 1 C0 0.67 0 0.34 0 0 Z " fill="#000000" transform="translate(166,78)"/>
<path d="M0 0 C0.33 0 0.66 0 1 0 C1.8320582 5.72040011 2.12036664 11.22240116 2 17 C1.67 17 1.34 17 1 17 C0.1679418 11.27959989 -0.12036664 5.77759884 0 0 Z " fill="#000000" transform="translate(210,140)"/>
<path d="M0 0 C0.33 0 0.66 0 1 0 C0.67 5.28 0.34 10.56 0 16 C-0.33 16 -0.66 16 -1 16 C-1.11138159 10.54230189 -0.91657981 5.38490641 0 0 Z " fill="#000000" transform="translate(185,141)"/>
<path d="M0 0 C2.05279359 4.10558718 2.2216942 5.80206685 2.125 10.25 C2.10695313 11.32765625 2.08890625 12.4053125 2.0703125 13.515625 C2.03550781 14.74539062 2.03550781 14.74539062 2 16 C1.67 16 1.34 16 1 16 C0.67 10.72 0.34 5.44 0 0 Z " fill="#000000" transform="translate(87,80)"/>
<path d="M0 0 C2 2 2 2 2.1953125 4.8203125 C2.16050781 6.45613281 2.16050781 6.45613281 2.125 8.125 C2.10695312 9.22070312 2.08890625 10.31640625 2.0703125 11.4453125 C2.04710937 12.28835937 2.02390625 13.13140625 2 14 C1.67 14 1.34 14 1 14 C0.67 9.38 0.34 4.76 0 0 Z " fill="#000000" transform="translate(162,123)"/>
<path d="M0 0 C4.95 0 9.9 0 15 0 C15 0.33 15 0.66 15 1 C10.05 1 5.1 1 0 1 C0 0.67 0 0.34 0 0 Z " fill="#000000" transform="translate(98,78)"/>
<path d="M0 0 C4.95 0 9.9 0 15 0 C15 0.33 15 0.66 15 1 C10.05 1 5.1 1 0 1 C0 0.67 0 0.34 0 0 Z " fill="#000000" transform="translate(44,78)"/>
<path d="M0 0 C3.96 0 7.92 0 12 0 C12 0.33 12 0.66 12 1 C8.04 1 4.08 1 0 1 C0 0.67 0 0.34 0 0 Z " fill="#000000" transform="translate(45,159)"/>
<path d="M0 0 C0.33 0 0.66 0 1 0 C1 3.63 1 7.26 1 11 C0.67 11 0.34 11 0 11 C0 7.37 0 3.74 0 0 Z " fill="#000000" transform="translate(208,120)"/>
<path d="M0 0 C0.33 0 0.66 0 1 0 C1 3.63 1 7.26 1 11 C0.67 11 0.34 11 0 11 C0 7.37 0 3.74 0 0 Z " fill="#000000" transform="translate(91,113)"/>
<path d="M0 0 C0.33 0 0.66 0 1 0 C1 3.3 1 6.6 1 10 C0.67 10 0.34 10 0 10 C0 6.7 0 3.4 0 0 Z " fill="#000000" transform="translate(93,134)"/>
<path d="M0 0 C0.33 0 0.66 0 1 0 C1 3.3 1 6.6 1 10 C0.67 10 0.34 10 0 10 C0 6.7 0 3.4 0 0 Z " fill="#000000" transform="translate(92,124)"/>
<path d="M0 0 C0.33 0 0.66 0 1 0 C1 3.3 1 6.6 1 10 C0.67 10 0.34 10 0 10 C0 6.7 0 3.4 0 0 Z " fill="#000000" transform="translate(207,110)"/>
<path d="M0 0 C0.33 0 0.66 0 1 0 C1 3.3 1 6.6 1 10 C0.67 10 0.34 10 0 10 C0 6.7 0 3.4 0 0 Z " fill="#000000" transform="translate(72,109)"/>
<path d="M0 0 C0.33 0 0.66 0 1 0 C1 3.3 1 6.6 1 10 C0.67 10 0.34 10 0 10 C0 6.7 0 3.4 0 0 Z " fill="#000000" transform="translate(204,82)"/>
<path d="M0 0 C0.33 0 0.66 0 1 0 C1 2.97 1 5.94 1 9 C0.67 9 0.34 9 0 9 C0 6.03 0 3.06 0 0 Z " fill="#000000" transform="translate(71,119)"/>
<path d="M0 0 C0.33 0 0.66 0 1 0 C1 2.97 1 5.94 1 9 C0.67 9 0.34 9 0 9 C0 6.03 0 3.06 0 0 Z " fill="#000000" transform="translate(206,101)"/>
<path d="M0 0 C0.33 0 0.66 0 1 0 C1 2.97 1 5.94 1 9 C0.67 9 0.34 9 0 9 C0 6.03 0 3.06 0 0 Z " fill="#000000" transform="translate(73,100)"/>
<path d="M0 0 C0.33 0 0.66 0 1 0 C1 2.97 1 5.94 1 9 C0.67 9 0.34 9 0 9 C0 6.03 0 3.06 0 0 Z " fill="#000000" transform="translate(191,86)"/>
<path d="M0 0 C0.33 0 0.66 0 1 0 C1 2.97 1 5.94 1 9 C0.67 9 0.34 9 0 9 C0 6.03 0 3.06 0 0 Z " fill="#000000" transform="translate(75,82)"/>
<path d="M0 0 C0.33 0 0.66 0 1 0 C1 2.64 1 5.28 1 8 C0.67 8 0.34 8 0 8 C0 5.36 0 2.72 0 0 Z " fill="#000000" transform="translate(163,149)"/>
<path d="M0 0 C0.33 0 0.66 0 1 0 C1 2.64 1 5.28 1 8 C0.67 8 0.34 8 0 8 C0 5.36 0 2.72 0 0 Z " fill="#000000" transform="translate(94,145)"/>
<path d="M0 0 C0.33 0 0.66 0 1 0 C1 2.64 1 5.28 1 8 C0.67 8 0.34 8 0 8 C0 5.36 0 2.72 0 0 Z " fill="#000000" transform="translate(186,132)"/>
<path d="M0 0 C0.33 0 0.66 0 1 0 C1 2.64 1 5.28 1 8 C0.67 8 0.34 8 0 8 C0 5.36 0 2.72 0 0 Z " fill="#000000" transform="translate(152,128)"/>
<path d="M0 0 C0.33 0 0.66 0 1 0 C1 2.64 1 5.28 1 8 C0.67 8 0.34 8 0 8 C0 5.36 0 2.72 0 0 Z " fill="#000000" transform="translate(90,105)"/>
<path d="M0 0 C2.64 0 5.28 0 8 0 C8 0.33 8 0.66 8 1 C5.36 1 2.72 1 0 1 C0 0.67 0 0.34 0 0 Z " fill="#000000" transform="translate(154,98)"/>
<path d="M0 0 C0.33 0 0.66 0 1 0 C1 2.64 1 5.28 1 8 C0.67 8 0.34 8 0 8 C0 5.36 0 2.72 0 0 Z " fill="#000000" transform="translate(89,96)"/>
<path d="M0 0 C0.33 0 0.66 0 1 0 C1 2.64 1 5.28 1 8 C0.67 8 0.34 8 0 8 C0 5.36 0 2.72 0 0 Z " fill="#000000" transform="translate(205,92)"/>
<path d="M0 0 C0.33 0 0.66 0 1 0 C1 2.64 1 5.28 1 8 C0.67 8 0.34 8 0 8 C0 5.36 0 2.72 0 0 Z " fill="#000000" transform="translate(188,80)"/>
<path d="M0 0 C2.64 0 5.28 0 8 0 C8 0.33 8 0.66 8 1 C5.36 1 2.72 1 0 1 C0 0.67 0 0.34 0 0 Z " fill="#000000" transform="translate(78,78)"/>
<path d="M0 0 C2.31 0 4.62 0 7 0 C7 0.33 7 0.66 7 1 C4.69 1 2.38 1 0 1 C0 0.67 0 0.34 0 0 Z " fill="#000000" transform="translate(203,159)"/>
<path d="M0 0 C2.31 0 4.62 0 7 0 C7 0.33 7 0.66 7 1 C4.69 1 2.38 1 0 1 C0 0.67 0 0.34 0 0 Z " fill="#000000" transform="translate(86,159)"/>
<path d="M0 0 C0.33 0 0.66 0 1 0 C1 2.31 1 4.62 1 7 C0.67 7 0.34 7 0 7 C0 4.69 0 2.38 0 0 Z " fill="#000000" transform="translate(78,150)"/>
<path d="M0 0 C0.33 0 0.66 0 1 0 C1 2.31 1 4.62 1 7 C0.67 7 0.34 7 0 7 C0 4.69 0 2.38 0 0 Z " fill="#000000" transform="translate(209,132)"/>
<path d="M0 0 C0.33 0 0.66 0 1 0 C1 2.31 1 4.62 1 7 C0.67 7 0.34 7 0 7 C0 4.69 0 2.38 0 0 Z " fill="#000000" transform="translate(70,128)"/>
<path d="M0 0 C2.31 0 4.62 0 7 0 C7 0.33 7 0.66 7 1 C4.69 1 2.38 1 0 1 C0 0.67 0 0.34 0 0 Z " fill="#000000" transform="translate(140,124)"/>
<path d="M0 0 C0.33 0 0.66 0 1 0 C1 2.31 1 4.62 1 7 C0.67 7 0.34 7 0 7 C0 4.69 0 2.38 0 0 Z " fill="#000000" transform="translate(189,104)"/>
<path d="M0 0 C0.33 0 0.66 0 1 0 C1 2.31 1 4.62 1 7 C0.67 7 0.34 7 0 7 C0 4.69 0 2.38 0 0 Z " fill="#000000" transform="translate(190,96)"/>
<path d="M0 0 C0.33 0 0.66 0 1 0 C1 2.31 1 4.62 1 7 C0.67 7 0.34 7 0 7 C0 4.69 0 2.38 0 0 Z " fill="#000000" transform="translate(74,92)"/>
<path d="M0 0 C2.31 0 4.62 0 7 0 C7 0.33 7 0.66 7 1 C4.69 1 2.38 1 0 1 C0 0.67 0 0.34 0 0 Z " fill="#000000" transform="translate(195,78)"/>
<path d="M0 0 C2.31 0 4.62 0 7 0 C7 0.33 7 0.66 7 1 C4.69 1 2.38 1 0 1 C0 0.67 0 0.34 0 0 Z " fill="#000000" transform="translate(128,78)"/>
<path d="M0 0 C1.98 0 3.96 0 6 0 C6 0.33 6 0.66 6 1 C4.02 1 2.04 1 0 1 C0 0.67 0 0.34 0 0 Z " fill="#000000" transform="translate(186,159)"/>
<path d="M0 0 C1.98 0 3.96 0 6 0 C6 0.33 6 0.66 6 1 C4.02 1 2.04 1 0 1 C0 0.67 0 0.34 0 0 Z " fill="#000000" transform="translate(173,159)"/>
<path d="M0 0 C1.98 0 3.96 0 6 0 C6 0.33 6 0.66 6 1 C4.02 1 2.04 1 0 1 C0 0.67 0 0.34 0 0 Z " fill="#000000" transform="translate(99,159)"/>
<path d="M0 0 C1.98 0 3.96 0 6 0 C6 0.33 6 0.66 6 1 C4.02 1 2.04 1 0 1 C0 0.67 0 0.34 0 0 Z " fill="#000000" transform="translate(70,159)"/>
<path d="M0 0 C0.33 0 0.66 0 1 0 C1 1.98 1 3.96 1 6 C0.67 6 0.34 6 0 6 C0 4.02 0 2.04 0 0 Z " fill="#000000" transform="translate(125,150)"/>
<path d="M0 0 C0.33 0 0.66 0 1 0 C1 1.98 1 3.96 1 6 C0.67 6 0.34 6 0 6 C0 4.02 0 2.04 0 0 Z " fill="#000000" transform="translate(192,80)"/>
<path d="M0 0 C0.33 0 0.66 0 1 0 C1 1.65 1 3.3 1 5 C0.67 5 0.34 5 0 5 C0 3.35 0 1.7 0 0 Z " fill="#000000" transform="translate(123,153)"/>
<path d="M0 0 C0.33 0 0.66 0 1 0 C1 1.65 1 3.3 1 5 C0.67 5 0.34 5 0 5 C0 3.35 0 1.7 0 0 Z " fill="#000000" transform="translate(200,152)"/>
<path d="M0 0 C0.99 0.495 0.99 0.495 2 1 C1.67 1.99 1.34 2.98 1 4 C0.67 2.68 0.34 1.36 0 0 Z " fill="#000000" transform="translate(155,109)"/>
<path d="M0 0 C1 4 1 4 1 4 Z " fill="#000000" transform="translate(121,124)"/>
<path d="M0 0 C3 1 3 1 3 1 Z " fill="#000000" transform="translate(57,158)"/>
<path d="" fill="#000000" transform="translate(0,0)"/>
<path d="M0 0 C0.33 0.66 0.66 1.32 1 2 C0.34 1.67 -0.32 1.34 -1 1 C-0.67 0.67 -0.34 0.34 0 0 Z " fill="#000000" transform="translate(63,155)"/>
<path d="" fill="#000000" transform="translate(0,0)"/>
<path d="" fill="#000000" transform="translate(0,0)"/>
<path d="" fill="#000000" transform="translate(0,0)"/>
<path d="" fill="#000000" transform="translate(0,0)"/>
<path d="" fill="#000000" transform="translate(0,0)"/>
<path d="" fill="#000000" transform="translate(0,0)"/>
<path d="" fill="#000000" transform="translate(0,0)"/>
<path d="" fill="#000000" transform="translate(0,0)"/>
<path d="" fill="#000000" transform="translate(0,0)"/>
<path d="M0 0 C3 1 3 1 3 1 Z " fill="#000000" transform="translate(152,78)"/>
<path d="" fill="#000000" transform="translate(0,0)"/>
<path d="" fill="#000000" transform="translate(0,0)"/>
<path d="" fill="#000000" transform="translate(0,0)"/>
<path d="" fill="#000000" transform="translate(0,0)"/>
<path d="" fill="#000000" transform="translate(0,0)"/>
<path d="" fill="#000000" transform="translate(0,0)"/>
<path d="" fill="#000000" transform="translate(0,0)"/>
<path d="" fill="#000000" transform="translate(0,0)"/>
<path d="" fill="#000000" transform="translate(0,0)"/>
<path d="" fill="#000000" transform="translate(0,0)"/>
<path d="" fill="#000000" transform="translate(0,0)"/>
<path d="" fill="#000000" transform="translate(0,0)"/>
<path d="" fill="#000000" transform="translate(0,0)"/>
<path d="" fill="#000000" transform="translate(0,0)"/>
<path d="" fill="#000000" transform="translate(0,0)"/>
<path d="" fill="#000000" transform="translate(0,0)"/>
<path d="" fill="#000000" transform="translate(0,0)"/>
<path d="" fill="#000000" transform="translate(0,0)"/>
<path d="" fill="#000000" transform="translate(0,0)"/>
<path d="" fill="#000000" transform="translate(0,0)"/>
<path d="" fill="#000000" transform="translate(0,0)"/>
<path d="" fill="#000000" transform="translate(0,0)"/>
<path d="" fill="#000000" transform="translate(0,0)"/>
<path d="" fill="#000000" transform="translate(0,0)"/>
<path d="" fill="#000000" transform="translate(0,0)"/>
<path d="" fill="#000000" transform="translate(0,0)"/>
<path d="" fill="#000000" transform="translate(0,0)"/>
<path d="" fill="#000000" transform="translate(0,0)"/>
<path d="" fill="#000000" transform="translate(0,0)"/>
<path d="" fill="#000000" transform="translate(0,0)"/>
<path d="" fill="#000000" transform="translate(0,0)"/>
<path d="" fill="#000000" transform="translate(0,0)"/>
<path d="" fill="#000000" transform="translate(0,0)"/>
<path d="" fill="#000000" transform="translate(0,0)"/>
<path d="M0 0 C2 1 2 1 2 1 Z " fill="#000000" transform="translate(113,79)"/>
<path d="M0 0 C2 1 2 1 2 1 Z " fill="#000000" transform="translate(59,79)"/>
<path d="" fill="#000000" transform="translate(0,0)"/>
<path d="" fill="#000000" transform="translate(0,0)"/>
<path d="" fill="#000000" transform="translate(0,0)"/>
<path d="" fill="#000000" transform="translate(0,0)"/>
<path d="" fill="#000000" transform="translate(0,0)"/>
<path d="" fill="#000000" transform="translate(0,0)"/>
<path d="" fill="#000000" transform="translate(0,0)"/>
<path d="" fill="#000000" transform="translate(0,0)"/>
<path d="" fill="#000000" transform="translate(0,0)"/>
<path d="" fill="#000000" transform="translate(0,0)"/>
<path d="" fill="#000000" transform="translate(0,0)"/>
<path d="" fill="#000000" transform="translate(0,0)"/>
<path d="" fill="#000000" transform="translate(0,0)"/>
<path d="" fill="#000000" transform="translate(0,0)"/>
<path d="" fill="#000000" transform="translate(0,0)"/>
<path d="" fill="#000000" transform="translate(0,0)"/>
<path d="" fill="#000000" transform="translate(0,0)"/>
<path d="" fill="#000000" transform="translate(0,0)"/>
<path d="" fill="#000000" transform="translate(0,0)"/>
<path d="" fill="#000000" transform="translate(0,0)"/>
<path d="" fill="#000000" transform="translate(0,0)"/>
<path d="" fill="#000000" transform="translate(0,0)"/>
<path d="" fill="#000000" transform="translate(0,0)"/>
<path d="" fill="#000000" transform="translate(0,0)"/>
<path d="" fill="#000000" transform="translate(0,0)"/>
<path d="" fill="#000000" transform="translate(0,0)"/>
</svg>
